<svg width="34" height="34" viewBox="0 0 34 34" fill="none" xmlns="http://www.w3.org/2000/svg">
<g clip-path="url(#clip0_1_484)">
<path d="M10.0369 13.4V11.336H13.8929V23H11.5889V13.4H10.0369ZM18.0578 16.824C16.9911 16.2693 16.4578 15.4107 16.4578 14.248C16.4578 13.672 16.6018 13.1493 16.8898 12.68C17.1885 12.2 17.6311 11.8213 18.2178 11.544C18.8151 11.256 19.5405 11.112 20.3938 11.112C21.2471 11.112 21.9671 11.256 22.5538 11.544C23.1511 11.8213 23.5938 12.2 23.8818 12.68C24.1805 13.1493 24.3298 13.672 24.3298 14.248C24.3298 14.8347 24.1858 15.352 23.8978 15.8C23.6098 16.2373 23.2258 16.5787 22.7458 16.824C23.3325 17.08 23.7911 17.4533 24.1218 17.944C24.4525 18.4347 24.6178 19.016 24.6178 19.688C24.6178 20.4133 24.4311 21.048 24.0578 21.592C23.6951 22.1253 23.1938 22.536 22.5538 22.824C21.9138 23.112 21.1938 23.256 20.3938 23.256C19.5938 23.256 18.8738 23.112 18.2338 22.824C17.6045 22.536 17.1031 22.1253 16.7298 21.592C16.3671 21.048 16.1858 20.4133 16.1858 19.688C16.1858 19.016 16.3511 18.4347 16.6818 17.944C17.0125 17.4427 17.4711 17.0693 18.0578 16.824ZM22.1538 14.568C22.1538 14.0453 21.9938 13.64 21.6738 13.352C21.3645 13.064 20.9378 12.92 20.3938 12.92C19.8605 12.92 19.4338 13.064 19.1138 13.352C18.8045 13.64 18.6498 14.0507 18.6498 14.584C18.6498 15.064 18.8098 15.448 19.1298 15.736C19.4605 16.024 19.8818 16.168 20.3938 16.168C20.9058 16.168 21.3271 16.024 21.6578 15.736C21.9885 15.4373 22.1538 15.048 22.1538 14.568ZM20.3938 17.8C19.7858 17.8 19.2898 17.9547 18.9058 18.264C18.5325 18.5733 18.3458 19.016 18.3458 19.592C18.3458 20.1253 18.5271 20.5627 18.8898 20.904C19.2631 21.2347 19.7645 21.4 20.3938 21.4C21.0231 21.4 21.5191 21.2293 21.8818 20.888C22.2445 20.5467 22.4258 20.1147 22.4258 19.592C22.4258 19.0267 22.2391 18.5893 21.8658 18.28C21.4925 17.96 21.0018 17.8 20.3938 17.8Z" fill="#EDEDED"/>
<path d="M31.1814 6.208H33.4694C33.672 6.208 33.7734 6.31467 33.7734 6.528V7.2C33.7734 7.40267 33.672 7.504 33.4694 7.504H31.1814V9.824C31.1814 10.0373 31.0747 10.144 30.8614 10.144H30.1414C29.9387 10.144 29.8374 10.0373 29.8374 9.824V7.504H27.5334C27.3307 7.504 27.2294 7.40267 27.2294 7.2V6.528C27.2294 6.31467 27.3307 6.208 27.5334 6.208H29.8374V3.904C29.8374 3.69067 29.9387 3.584 30.1414 3.584H30.8614C31.0747 3.584 31.1814 3.69067 31.1814 3.904V6.208Z" fill="#EDEDED"/>
<path d="M32.9002 12.5915C33.9463 16.3648 33.6165 20.3872 31.9697 23.9396C30.3228 27.4921 27.4663 30.3431 23.9106 31.9831C20.355 33.6231 16.332 33.9451 12.5608 32.8916C8.7895 31.8381 5.51581 29.4778 3.32483 26.2325C1.13385 22.9873 0.16839 19.0686 0.601024 15.1769C1.03366 11.2853 2.83619 7.67431 5.68641 4.98947C8.53664 2.30463 12.2488 0.720928 16.1593 0.52143C20.0699 0.321931 23.9239 1.51964 27.0326 3.90049" stroke="#EDEDED" stroke-linecap="round"/>
</g>
<defs>
<clipPath id="clip0_1_484">
<rect width="34" height="34" fill="white"/>
</clipPath>
</defs>
</svg>
