<svg width="40" height="40" viewBox="0 0 40 40" fill="none" xmlns="http://www.w3.org/2000/svg">
<g clip-path="url(#clip0_54_229)">
<path d="M20 40C31.0457 40 40 31.0457 40 20C40 8.9543 31.0457 0 20 0C8.9543 0 0 8.9543 0 20C0 31.0457 8.9543 40 20 40Z" fill="white"/>
<path fill-rule="evenodd" clip-rule="evenodd" d="M32.1766 4.13473L32.1778 4.1357V4.13347L32.1766 4.13473ZM32.1766 4.13473C30.1323 2.5641 27.7772 1.37777 25.2178 0.689026V11.0935L32.1766 4.13473ZM0.688904 14.7835C1.37779 12.2246 2.56223 9.86903 4.13334 7.82458L11.0933 14.7835H0.688904ZM35.8667 7.82458C37.4601 9.89585 38.6305 12.2603 39.3111 14.7835H28.9078L35.8667 7.82458ZM0.689203 25.219H11.0922L4.13334 32.1779C2.56469 30.1338 1.37813 27.7786 0.689203 25.219ZM7.82446 35.8668C9.8689 37.4379 12.2245 38.6223 14.7833 39.3112V28.9068L7.82446 35.8668ZM7.82446 4.13347C9.89572 2.54002 12.2602 1.36965 14.7833 0.689026V11.0924L7.82446 4.13347ZM25.2167 39.3112C27.7398 38.6307 30.1043 37.4602 32.1756 35.8668L25.2167 28.9079V39.3112ZM35.8645 32.1768L28.9056 25.2179H39.3089C38.62 27.7768 37.4356 30.1323 35.8645 32.1768Z" fill="#162B74"/>
<path fill-rule="evenodd" clip-rule="evenodd" d="M39.8311 17.3911H22.6089V0.168907C20.877 -0.0566684 19.1231 -0.0566684 17.3911 0.168907V17.3911H0.168907C-0.0566685 19.1231 -0.0566685 20.877 0.168907 22.6089H17.3911V39.8311C19.1231 40.0567 20.877 40.0567 22.6089 39.8311V22.6089H39.8311C40.0567 20.877 40.0567 19.1231 39.8311 17.3911ZM25.2178 25.2178L34.1422 34.1422L35.3178 32.8578L27.6767 25.2167H25.2167L25.2178 25.2178ZM5.85779 34.1422L14.7822 25.2178H14.7833V27.6767L7.14224 35.3178L5.85779 34.1422ZM14.7822 14.7822L5.85779 5.8578L4.68224 7.14224L12.3233 14.7833H14.7833L14.7822 14.7822ZM34.1422 5.8578L25.2178 14.7822L25.2167 14.7833V12.3233L32.8578 4.68224L34.1422 5.8578Z" fill="#CE142B"/>
</g>
<defs>
<clipPath id="clip0_54_229">
<rect width="40" height="40" fill="white"/>
</clipPath>
</defs>
</svg>
