<svg width="40" height="40" viewBox="0 0 40 40" fill="none" xmlns="http://www.w3.org/2000/svg">
<g clip-path="url(#clip0_54_266)">
<path d="M20 40C31.0457 40 40 31.0457 40 20C40 8.9543 31.0457 0 20 0C8.9543 0 0 8.9543 0 20C0 31.0457 8.9543 40 20 40Z" fill="#009B3A"/>
<path d="M20 7.82553L36.5222 20L20 32.1745L3.47778 20L20 7.82553Z" fill="#FEDF00"/>
<path d="M20 26.9567C23.8421 26.9567 26.9567 23.8421 26.9567 20C26.9567 16.158 23.8421 13.0433 20 13.0433C16.158 13.0433 13.0433 16.158 13.0433 20C13.0433 23.8421 16.158 26.9567 20 26.9567Z" fill="white"/>
<path fill-rule="evenodd" clip-rule="evenodd" d="M26.9567 20C26.9564 20.4476 26.9133 20.8941 26.8278 21.3333V21.3456C24.2178 18.6478 20.5622 16.9678 16.5222 16.9678C15.5431 16.9671 14.5666 17.0669 13.6078 17.2656C14.6722 14.7767 17.1333 13.0433 20 13.0433C21.8451 13.043 23.6148 13.7759 24.9194 15.0806C26.2241 16.3852 26.957 18.1549 26.9567 20ZM13.0467 20.0811C14.1721 19.7319 15.3439 19.5548 16.5222 19.5556L16.5211 19.5644C20.0943 19.5641 23.4726 21.1934 25.6967 23.99C24.4389 25.7833 22.3555 26.9567 20 26.9567C16.1904 26.9557 13.0904 23.8904 13.0467 20.0811Z" fill="#162B74"/>
</g>
<defs>
<clipPath id="clip0_54_266">
<rect width="40" height="40" fill="white"/>
</clipPath>
</defs>
</svg>
