<svg width="40" height="40" viewBox="0 0 40 40" fill="none" xmlns="http://www.w3.org/2000/svg">
<g clip-path="url(#clip0_54_258)">
<path d="M20 40C31.0457 40 40 31.0457 40 20C40 8.9543 31.0457 0 20 0C8.9543 0 0 8.9543 0 20C0 31.0457 8.9543 40 20 40Z" fill="white"/>
<path fill-rule="evenodd" clip-rule="evenodd" d="M0 19.9999C0 27.9288 4.61444 34.7799 11.3044 38.0154V1.98431C4.61444 5.21987 0 12.071 0 19.9999ZM40 19.9999C40 12.071 35.3856 5.21987 28.6956 1.98431V38.0154C35.3856 34.781 40 27.9288 40 19.9999ZM26.9556 20.8699L23.4778 22.6088L24.3467 24.3477H20.8689V26.9565H19.13V24.3477H15.6522L16.5222 22.6088L13.0444 20.8699L14.7833 19.9999V18.261L18.2611 19.9999L16.5222 16.5221H18.2611L20 13.9132L21.7389 16.5221H23.4778L21.7389 19.9999L25.2178 18.261V19.9999L26.9556 20.8699Z" fill="#CE142B"/>
</g>
<defs>
<clipPath id="clip0_54_258">
<rect width="40" height="40" fill="white"/>
</clipPath>
</defs>
</svg>
